<svg width="145" height="139" viewBox="0 0 145 139" fill="none" xmlns="http://www.w3.org/2000/svg">
<path d="M144.711 0L79.3236 10.2698C78.1746 10.4495 77.0134 10.5391 75.8505 10.5377H69.6391C68.3802 10.5382 67.1229 10.4487 65.8766 10.2698L57.6838 8.93029L0.244832 0C-4.85343 71.2637 72.4888 139 72.4888 139C72.4888 139 149.853 71.2637 144.711 0ZM84.6 64.5883C85.0036 66.9256 85.2047 69.2935 85.2011 71.6656C85.2132 77.2184 84.0712 82.7127 81.8479 87.7983C79.6247 92.8839 76.369 97.449 72.2884 101.203C68.1969 97.4541 64.9294 92.8914 62.6946 87.8058C60.4598 82.7201 59.3068 77.2231 59.309 71.6656C59.31 69.2326 59.5261 66.8045 59.9546 64.4097C53.1278 62.1436 47.0348 58.0771 42.3146 52.6367C37.5945 47.1962 34.4212 40.5823 33.1275 33.4886C37.0278 32.2752 41.0882 31.658 45.1719 31.6579C55.2036 31.6365 64.8731 35.4162 72.2439 42.2403C77.4748 37.3766 83.9054 34.0012 90.8719 32.4627C97.8383 30.9242 105.088 31.2784 111.872 33.4886C110.57 40.6668 107.343 47.354 102.539 52.8328C97.7342 58.3117 91.5329 62.3755 84.6 64.5883Z" fill="#3E17FF"/>
</svg>
